<?xml version="1.0" standalone="no"?>
<!DOCTYPE svg PUBLIC "-//W3C//DTD SVG 20010904//EN"
 "http://www.w3.org/TR/2001/REC-SVG-20010904/DTD/svg10.dtd">
<svg version="1.0" xmlns="http://www.w3.org/2000/svg"
 width="746.000000pt" height="710.000000pt" viewBox="0 0 746.000000 710.000000"
 preserveAspectRatio="xMidYMid meet">
<metadata>
Created by potrace 1.16, written by Peter Selinger 2001-2019
</metadata>
<g transform="translate(0.000000,710.000000) scale(0.100000,-0.100000)"
fill="#000000" stroke="none">
<path d="M5470 6841 l-35 -6 47 -23 c64 -32 158 -149 182 -230 7 -21 4 -20
-51 12 -32 19 -101 47 -153 62 -89 27 -106 28 -275 28 -99 -1 -218 -7 -265
-13 -132 -19 -276 -23 -337 -11 -64 14 -118 56 -127 101 -15 76 -78 -11 -79
-110 -1 -56 -2 -59 -33 -70 -18 -7 -65 -30 -105 -51 -39 -22 -75 -40 -80 -40
-12 0 -77 93 -99 141 -11 24 -20 37 -20 28 0 -24 45 -104 95 -169 89 -116 176
-170 347 -217 185 -50 260 -117 360 -320 77 -157 85 -163 218 -163 52 1 142 7
199 15 194 25 322 -19 521 -180 115 -94 259 -191 343 -231 48 -22 117 -44 182
-57 l106 -21 -68 -69 c-86 -87 -150 -136 -291 -226 -142 -89 -188 -112 -281
-140 -68 -21 -82 -22 -170 -12 -174 19 -213 39 -396 204 -114 102 -200 154
-284 169 -34 6 -61 14 -61 17 0 3 43 40 95 81 52 41 95 76 95 77 0 9 -42 -21
-120 -85 -81 -65 -89 -69 -150 -76 -36 -3 -83 -9 -105 -11 l-40 -6 25 18 c50
36 110 96 140 141 42 63 89 191 106 286 27 152 15 161 -15 10 -23 -117 -71
-243 -114 -299 -17 -22 -58 -64 -91 -93 -59 -51 -61 -51 -70 -30 -4 13 -15 36
-24 52 -15 29 -15 30 19 55 18 14 49 41 69 60 32 30 33 31 5 13 -16 -11 -50
-36 -75 -56 -31 -24 -48 -32 -55 -25 -10 11 2 24 75 81 19 15 32 28 28 28 -4
0 -33 -21 -64 -46 -35 -29 -60 -42 -65 -37 -6 6 18 34 65 74 41 35 73 66 70
68 -2 2 -29 -18 -60 -45 -90 -79 -98 -84 -114 -73 -12 8 -5 18 34 52 27 23 63
55 80 70 l31 29 -31 -21 c-17 -11 -54 -41 -83 -67 l-52 -47 -77 26 c-42 14
-110 33 -151 42 -87 19 -98 24 -80 37 10 7 8 7 -8 3 -20 -5 -63 12 -63 26 0 3
10 11 23 18 17 9 17 10 2 5 -43 -14 -50 -9 -82 56 -40 80 -79 226 -93 345 -23
203 -2 460 49 613 15 45 26 82 24 82 -11 0 -47 -106 -63 -180 -17 -83 -18 -85
-46 -85 -25 0 -33 7 -53 49 -24 48 -24 50 -8 95 9 25 15 47 13 48 -1 2 -18 -7
-37 -20 -49 -33 -123 -146 -150 -229 -20 -64 -21 -78 -12 -135 7 -36 19 -73
29 -84 9 -10 15 -21 13 -22 -2 -2 -21 -14 -41 -26 -94 -56 -182 -192 -244
-376 -25 -73 -27 -97 -33 -291 -4 -157 -10 -215 -20 -227 -11 -15 -11 -17 2
-17 8 0 18 8 23 18 4 9 11 112 14 227 6 178 11 221 30 280 35 111 104 247 153
301 53 59 121 109 136 99 17 -10 13 1 -13 40 -48 70 -44 170 11 280 28 55 91
145 101 145 4 0 7 -27 7 -59 0 -52 4 -63 29 -90 17 -17 40 -31 53 -31 23 0 23
-2 18 -72 -10 -121 -13 -133 -45 -156 -90 -67 -317 -427 -409 -650 l-30 -72
34 -268 c19 -147 41 -301 49 -342 9 -46 11 -79 5 -85 -5 -5 -69 -11 -142 -13
l-132 -3 55 31 c58 34 134 101 152 135 11 19 10 19 -9 3 -27 -25 -50 -22 -110
12 -51 29 -94 80 -108 127 -6 21 -4 21 27 12 18 -5 46 -9 63 -9 l30 1 -42 37
c-23 20 -49 54 -58 74 -19 48 -19 51 4 38 11 -5 35 -10 53 -9 30 0 29 1 -16
13 -26 8 -52 20 -57 27 -15 24 -10 -38 6 -79 9 -20 28 -47 43 -59 l27 -23 -28
0 c-16 0 -37 5 -48 10 -17 10 -19 7 -19 -20 0 -17 6 -43 14 -58 29 -56 119
-122 166 -122 11 0 20 -4 20 -9 0 -15 -146 -109 -182 -116 l-33 -8 45 -13 c25
-8 84 -14 132 -14 l87 0 -10 -29 c-6 -16 -21 -39 -35 -52 -13 -12 -24 -26 -24
-31 0 -4 25 -8 56 -8 54 0 56 -1 49 -22 -18 -56 -17 -96 5 -139 13 -24 27 -47
33 -50 5 -4 7 -19 3 -34 -7 -26 -9 -25 -37 35 -16 35 -50 92 -74 126 -47 65
-176 177 -258 222 -49 28 -51 34 -31 86 5 12 -4 21 -36 34 -40 16 -41 18 -35
52 3 19 8 81 12 138 7 115 7 115 -68 86 -50 -20 -63 -9 -53 46 14 70 11 85
-16 85 -29 0 -39 13 -55 74 -11 43 -14 46 -42 45 -101 -5 -431 -255 -596 -451
-20 -25 -35 -33 -60 -33 -41 0 -253 -36 -332 -56 -134 -34 -366 -143 -490
-232 -65 -46 -171 -138 -267 -231 -88 -85 -80 -83 -253 -64 -55 7 -212 13
-350 15 l-250 3 -3 -59 c-2 -44 8 -103 43 -238 85 -334 204 -602 328 -735 26
-28 31 -42 37 -115 18 -182 50 -290 126 -419 59 -102 130 -179 228 -249 42
-30 76 -59 76 -65 0 -6 -7 -20 -15 -31 -22 -29 -18 -37 17 -30 29 5 35 2 51
-25 l17 -31 36 21 c43 26 44 26 44 2 0 -10 9 -30 21 -45 l21 -27 24 26 c16 17
33 25 58 25 42 0 44 -4 56 -77 5 -31 15 -60 22 -64 10 -6 9 -11 -4 -21 -18
-14 -48 -77 -48 -102 0 -8 21 -41 48 -73 26 -32 66 -85 88 -118 37 -55 40 -63
32 -98 -7 -34 -3 -49 31 -120 21 -45 54 -98 72 -117 l34 -35 -1 -140 c-1 -77
-7 -156 -13 -175 -14 -43 -15 -78 -2 -64 5 5 17 51 26 102 12 73 14 109 6 165
-6 40 -6 76 -1 82 5 6 34 8 72 5 l63 -5 6 -95 c4 -52 7 -141 8 -197 l1 -101
57 -36 c32 -20 61 -36 65 -36 3 0 19 -5 35 -11 l28 -11 -35 -13 c-48 -18 -76
-18 -113 2 -18 9 -37 17 -42 17 -29 2 -103 53 -128 88 -31 44 -49 44 -26 0 17
-32 33 -46 77 -68 18 -9 31 -19 28 -21 -3 -3 -36 1 -75 8 -69 12 -71 13 -81
48 -5 20 -10 43 -10 53 0 25 -81 230 -99 252 -9 10 -47 44 -84 75 -38 31 -94
77 -125 103 -33 27 -130 84 -227 133 -143 72 -180 87 -233 92 l-63 6 -100
-104 c-55 -57 -107 -117 -116 -134 -19 -35 -22 -100 -6 -116 6 -6 76 -19 154
-30 235 -30 367 -72 454 -143 66 -54 167 -215 220 -351 25 -66 54 -140 64
-165 l17 -45 105 -6 c57 -3 157 -16 223 -28 65 -11 137 -21 160 -21 66 0 67
-3 39 -123 -18 -75 -23 -111 -16 -118 6 -6 46 -13 90 -16 l79 -6 65 71 65 71
119 -29 c66 -17 128 -30 137 -30 9 0 36 15 60 33 24 19 84 61 133 94 50 34
103 75 119 92 17 17 37 31 47 31 13 0 -1 -34 -61 -152 -42 -84 -84 -175 -93
-201 l-16 -48 47 -21 c26 -12 70 -23 98 -26 48 -4 53 -2 110 46 167 140 388
408 508 615 l28 47 28 -20 c34 -24 46 -24 146 -4 65 13 85 22 116 51 20 19 41
33 46 29 6 -3 24 -44 41 -91 17 -47 41 -99 53 -115 l22 -30 -28 -117 c-16 -65
-30 -154 -33 -198 l-5 -80 58 -23 c108 -43 399 -131 407 -123 4 4 9 18 12 31
6 32 12 35 33 17 10 -10 28 -17 39 -17 34 0 252 40 341 62 82 20 83 21 106 67
44 87 156 457 156 513 0 9 16 52 35 95 l36 77 -51 46 c-38 33 -54 55 -60 85
-25 108 -7 160 87 252 52 50 73 78 69 89 -22 57 -20 63 40 123 53 53 68 62
145 85 47 14 102 26 122 26 46 0 53 13 60 115 12 160 -18 349 -73 470 -36 79
-139 189 -224 239 -37 21 -69 42 -71 47 -3 4 30 22 72 39 43 18 97 44 121 57
70 41 242 239 242 280 0 8 -13 13 -36 13 -20 0 -48 8 -62 19 -15 10 -74 41
-132 68 -90 43 -110 56 -138 97 -26 36 -31 50 -23 60 10 11 18 10 47 -5 20
-10 60 -21 90 -25 48 -6 52 -8 44 -24 -13 -24 -13 -87 0 -95 6 -4 30 14 54 38
37 39 130 93 191 111 18 5 20 1 20 -38 0 -29 7 -54 21 -72 23 -32 44 -42 44
-22 0 16 87 118 101 118 5 0 9 -6 9 -14 0 -24 39 -63 85 -85 24 -11 49 -21 54
-21 6 0 9 21 9 48 -1 39 25 115 48 141 2 2 15 -11 30 -28 25 -30 72 -61 93
-61 5 0 -1 19 -14 43 -30 51 -31 97 -5 155 36 79 57 100 148 143 126 59 246
143 288 200 l35 48 31 -35 c26 -30 75 -64 92 -64 2 0 4 24 4 53 -1 34 6 68 20
99 12 26 22 52 22 57 0 16 9 14 37 -8 26 -21 132 -56 141 -47 3 4 -4 16 -16
29 -53 56 -66 156 -33 249 38 104 45 176 32 294 -7 60 -15 117 -17 126 -4 14
0 16 30 11 104 -17 246 82 246 171 0 23 -2 25 -19 16 -32 -16 -103 -12 -130 9
l-24 19 45 20 c72 31 119 108 104 167 l-7 26 -26 -21 c-37 -29 -94 -27 -133 6
-55 47 -61 70 -70 278 -10 232 -28 312 -97 427 -100 168 -276 355 -419 446
-76 48 -77 48 -43 51 48 3 180 32 204 44 37 18 115 73 115 81 0 4 -31 7 -68 7
-104 0 -174 17 -300 72 -153 66 -210 77 -297 54 -36 -10 -68 -22 -71 -27 -14
-24 -24 -3 -24 50 0 155 -135 290 -327 327 -78 15 -105 16 -163 5z m189 -26
c173 -46 280 -162 287 -312 2 -34 0 -64 -4 -67 -7 -4 -79 11 -282 58 -173 40
-282 51 -520 50 -219 -1 -241 -3 -330 -26 -52 -14 -147 -38 -210 -53 -63 -14
-161 -42 -218 -61 l-102 -36 -55 47 c-30 26 -55 51 -55 54 0 10 174 101 193
101 18 0 27 21 28 68 0 43 20 104 34 109 6 2 18 -10 28 -26 9 -16 34 -40 54
-52 49 -31 199 -40 333 -20 54 7 191 14 320 15 222 1 226 1 310 -27 47 -16
116 -47 154 -68 l68 -39 -7 37 c-12 68 -117 217 -173 248 -26 14 -25 14 33 14
33 1 84 -6 114 -14z m666 -387 c128 -58 161 -68 265 -82 l85 -12 -28 -18 c-35
-24 -132 -56 -166 -56 -14 0 -73 20 -131 44 -58 24 -169 61 -247 82 -79 22
-143 42 -143 45 0 5 44 26 90 43 8 3 51 4 95 3 70 -3 92 -9 180 -49z m-3442
-1110 c20 -63 16 -75 -7 -18 -9 22 -19 40 -24 40 -16 0 -138 -108 -196 -174
-58 -65 -124 -162 -146 -215 -10 -25 -13 -26 -122 -29 l-112 -2 70 72 c65 69
130 125 263 226 30 23 59 42 63 42 3 0 14 8 24 17 15 16 149 90 165 92 3 1 13
-22 22 -51z m77 -75 c0 -5 -11 -48 -23 -98 -22 -85 -25 -90 -51 -93 -22 -3
-27 0 -23 11 11 30 -7 38 -61 26 -29 -7 -54 -10 -57 -7 -11 11 29 100 51 115
24 15 128 51 152 52 6 1 12 -2 12 -6z m105 -205 c-5 -74 -29 -200 -40 -216 -1
-1 -13 2 -26 8 -22 10 -24 16 -24 90 0 86 -12 113 -40 90 -18 -15 -19 -4 -5
36 8 22 25 36 68 56 31 14 61 26 66 27 4 1 5 -41 1 -91z m-224 -4 c-4 -53 -40
-144 -55 -144 -8 0 -27 3 -44 6 -28 6 -30 9 -21 31 15 41 12 46 -26 39 -35 -7
-36 -6 -29 21 4 15 10 32 15 37 11 12 141 56 154 52 6 -1 8 -20 6 -42z m-203
-145 c53 -6 128 -21 165 -34 63 -22 187 -92 187 -106 0 -35 -370 -421 -391
-408 -9 5 0 21 34 58 65 69 59 77 -7 12 l-55 -54 -56 43 c-133 102 -216 227
-218 329 -2 85 17 140 56 156 39 17 153 19 285 4z m325 -68 c51 -18 132 -61
232 -125 90 -57 188 -147 241 -221 47 -66 98 -169 86 -172 -4 -1 -83 -14 -177
-27 -93 -14 -179 -28 -190 -31 -11 -3 -28 1 -38 9 -17 13 -17 16 7 51 50 73
47 195 -8 311 -41 87 -84 137 -161 186 -69 43 -68 45 8 19z m750 -71 c4 -33
14 -77 22 -97 18 -44 68 -98 108 -119 27 -14 27 -14 27 19 0 49 45 131 97 177
26 22 48 38 50 36 3 -2 -1 -41 -8 -87 -16 -110 -6 -267 26 -404 30 -132 107
-298 157 -340 l33 -28 7 74 c4 41 13 103 19 139 l12 64 12 -41 c11 -38 52
-101 66 -102 3 -1 16 23 29 51 29 65 137 173 235 237 104 68 184 132 238 189
54 58 62 59 16 1 l-31 -39 44 0 c83 0 213 45 264 92 l21 19 -4 -93 c-4 -87 -3
-96 24 -148 15 -30 33 -56 39 -57 6 -2 17 16 25 39 l13 43 6 -101 c8 -129 42
-206 126 -283 31 -28 60 -51 65 -51 20 0 7 -26 -46 -91 -84 -104 -205 -178
-327 -200 -38 -7 -68 -16 -68 -21 0 -9 87 -55 138 -72 l33 -12 -37 -24 c-61
-40 -96 -92 -102 -148 l-4 -49 -72 37 c-39 21 -100 57 -136 81 -164 111 -304
189 -344 189 -17 0 -18 -6 -13 -62 4 -35 14 -109 23 -166 10 -56 15 -104 13
-107 -10 -9 -196 16 -263 36 -88 26 -245 108 -310 163 -67 56 -190 197 -242
279 -24 37 -47 67 -50 67 -4 0 1 -10 10 -22 9 -13 25 -39 35 -58 11 -19 49
-71 85 -115 41 -51 60 -82 53 -86 -7 -4 -52 -16 -102 -27 -97 -22 -160 -20
-151 5 22 57 56 216 55 258 -2 50 -2 50 -9 -15 -21 -176 -123 -428 -240 -592
-128 -179 -258 -294 -502 -443 -50 -31 -135 -90 -148 -104 -8 -9 -50 -55 -94
-103 -81 -89 -111 -108 -176 -108 -42 0 -54 8 -40 25 6 8 5 18 -4 30 -13 18
-18 17 -117 -22 -90 -35 -206 -67 -315 -88 l-31 -6 5 104 4 103 -33 29 c-42
35 -155 89 -173 82 -7 -3 -18 -27 -25 -54 -21 -88 -83 -253 -95 -253 -7 0 -27
20 -46 45 -27 36 -40 45 -65 45 -17 0 -41 7 -53 16 l-23 16 35 64 c18 35 32
64 30 64 -2 0 -19 -23 -38 -52 -25 -36 -42 -52 -60 -54 -14 -1 -35 -5 -46 -9
-22 -7 -25 2 -10 40 10 26 9 27 -15 21 -23 -6 -25 -4 -25 29 0 36 -4 39 -48
35 -21 -1 -23 1 -16 22 4 12 11 38 15 56 11 49 78 146 228 327 73 88 158 191
189 229 75 91 308 315 457 439 229 191 501 347 745 426 283 92 406 120 588
134 l52 4 1 -36 c1 -31 3 -28 11 19 6 30 24 100 40 155 25 81 31 124 35 228 4
85 9 127 17 127 6 0 22 9 36 20 14 11 28 20 31 20 3 0 9 -27 12 -60z m-617
-145 c78 -168 40 -326 -84 -352 -71 -15 -184 -6 -262 21 -101 35 -104 40 -50
84 127 103 281 270 312 337 l12 27 20 -23 c10 -13 34 -55 52 -94z m-1560 -256
c213 -65 388 -313 387 -549 -1 -154 -46 -253 -152 -333 -100 -75 -206 -98
-363 -79 -160 20 -256 88 -327 234 -58 118 -74 191 -74 328 0 94 5 126 23 173
27 71 105 167 163 202 93 54 216 63 343 24z m-900 -47 c148 -5 279 -14 290
-19 10 -6 29 -9 42 -8 29 2 28 -3 -13 -50 -20 -22 -38 -48 -41 -57 -6 -21 -17
-22 -47 -6 -91 48 -533 126 -560 99 -8 -8 -5 -43 12 -129 14 -64 26 -128 29
-142 l4 -25 -14 25 c-19 33 -56 199 -62 273 l-5 59 47 -6 c26 -3 169 -9 318
-14z m-74 -115 c-12 -13 -22 -26 -22 -29 0 -3 23 -8 51 -12 44 -6 49 -9 38
-22 -7 -8 -32 -27 -56 -41 -49 -29 -47 -40 16 -73 l36 -18 -37 -16 c-21 -9
-38 -20 -38 -24 0 -5 15 -16 34 -25 l35 -16 28 34 c25 32 31 34 66 29 31 -6
35 -9 25 -21 -6 -8 -32 -25 -56 -37 l-44 -22 38 -29 37 -29 -37 -32 -37 -32
41 -39 c35 -32 40 -43 35 -65 -6 -24 -10 -26 -43 -21 -50 8 -127 41 -148 64
-16 18 -15 19 10 29 37 14 91 56 111 86 22 35 11 43 -19 14 -19 -17 -31 -21
-52 -16 -56 14 -144 91 -144 125 0 6 19 15 41 21 23 6 53 16 68 22 26 10 25
10 -23 29 -44 16 -146 101 -146 120 0 3 17 9 38 11 20 3 64 17 97 31 76 32 83
32 57 4z m253 -26 c3 -5 -8 -18 -25 -27 -16 -10 -30 -21 -30 -25 0 -4 11 -31
25 -60 14 -31 21 -57 16 -62 -18 -18 -232 38 -231 60 1 4 23 25 51 47 75 57
177 93 194 67z m-368 -128 c39 -27 43 -33 27 -39 -54 -17 -64 -24 -64 -48 0
-33 91 -125 131 -133 39 -7 37 -15 -11 -42 -52 -29 -54 -34 -26 -68 16 -19 25
-46 30 -88 l6 -60 -24 45 c-72 136 -138 331 -170 505 l-8 40 32 -40 c17 -22
52 -54 77 -72z m4101 -437 c51 -26 269 -161 312 -194 14 -10 60 -38 102 -62
51 -29 103 -70 155 -123 43 -44 68 -74 57 -66 -12 8 -68 47 -125 87 -57 41
-131 88 -164 104 -63 32 -297 129 -302 125 -1 -2 2 -43 7 -92 16 -149 12 -212
-16 -290 -36 -101 -46 -169 -32 -238 6 -32 8 -60 5 -63 -2 -3 -42 -11 -88 -19
-176 -28 -303 -58 -416 -96 -64 -21 -118 -38 -119 -36 -5 5 189 88 264 113 43
15 116 29 177 34 57 5 113 15 124 21 23 15 30 54 24 126 -3 35 3 75 17 122 25
84 22 135 -21 386 -16 94 -29 173 -29 178 0 12 19 8 68 -17z m1317 -157 c-62
-63 -118 -98 -212 -130 -74 -25 -102 -29 -193 -29 -71 0 -122 5 -153 16 -51
17 -58 28 -28 43 17 9 60 6 172 -13 22 -4 27 0 38 31 16 43 49 59 146 68 l70
6 -53 -32 c-29 -17 -51 -33 -48 -36 6 -7 113 25 151 45 16 8 35 21 40 28 9 12
77 42 100 43 5 1 -9 -17 -30 -40z m-1920 -401 c-18 -55 -117 -255 -139 -283
-16 -20 -16 -20 -27 -1 -11 18 -12 18 -25 -5 -13 -24 -13 -24 -14 9 0 17 -5
32 -11 32 -8 0 -10 -18 -7 -55 6 -69 -9 -73 -18 -5 -4 28 -11 53 -17 57 -10 6
-4 -66 9 -100 5 -14 0 -17 -28 -17 -19 0 -39 -5 -46 -12 -8 -8 -27 -3 -76 22
-61 32 -65 35 -50 51 9 10 13 23 9 28 -3 7 2 11 14 11 35 0 121 23 121 33 0 5
-16 25 -35 44 l-35 35 -107 -27 c-59 -15 -139 -38 -178 -51 -38 -13 -87 -24
-108 -24 -21 0 -53 -7 -72 -14 -68 -29 -35 4 95 93 102 70 145 92 230 120 58
20 78 21 180 15 114 -6 116 -6 200 27 47 18 98 41 115 51 16 9 31 16 32 14 2
-2 -3 -24 -12 -48z m-604 -297 c46 -12 142 -54 254 -111 99 -51 190 -97 201
-103 26 -14 60 -84 75 -156 13 -63 8 -316 -7 -331 -6 -6 -31 -1 -68 14 -31 13
-94 32 -139 42 l-82 17 -1 72 c0 93 -23 150 -80 205 -35 33 -44 48 -40 66 5
17 -2 29 -29 51 -84 67 -117 98 -137 126 -21 29 -21 30 -2 24 11 -4 1 9 -22
30 -22 21 -46 46 -54 56 -11 15 -9 17 22 17 19 0 68 -9 109 -19z m-485 -128
c-95 -102 -167 -186 -161 -191 4 -4 99 93 195 201 32 36 46 45 54 36 8 -8 7
-13 -3 -17 -24 -8 -89 -75 -66 -67 16 5 14 0 -9 -24 -17 -17 -25 -31 -19 -31
6 0 29 20 52 45 23 25 44 45 46 45 10 0 -77 -105 -93 -113 -10 -4 -34 -31 -55
-60 -81 -113 -129 -161 -215 -220 -74 -51 -92 -56 -92 -30 0 13 -3 14 -12 5
-7 -7 -18 -12 -26 -12 -10 0 -7 8 8 30 28 40 15 38 -21 -2 -38 -44 -46 -31
-11 18 48 67 45 71 -9 14 -54 -57 -55 -54 -7 18 16 23 26 42 23 42 -8 0 -52
-50 -72 -82 -19 -31 -61 -41 -44 -10 5 9 28 38 51 65 23 26 37 47 32 47 -13 0
-112 -108 -112 -122 0 -6 -3 -8 -7 -5 -3 4 16 39 43 78 47 69 53 74 143 115
85 40 101 53 193 149 89 93 142 135 171 135 5 0 -31 -42 -79 -93 -84 -88 -161
-177 -152 -177 3 0 67 63 144 140 77 77 148 140 157 140 12 0 -4 -23 -47 -67z
m86 -85 c-53 -79 -117 -196 -110 -203 2 -2 36 45 76 106 40 61 77 107 82 104
6 -4 8 -15 5 -26 -4 -10 -2 -19 4 -19 6 0 -5 -44 -25 -97 -60 -167 -77 -197
-130 -234 -43 -29 -133 -119 -301 -299 l-51 -55 -26 27 c-13 15 -37 44 -52 63
l-27 36 44 64 c33 48 50 65 67 65 33 0 136 102 212 208 35 48 59 76 55 62 -5
-18 2 -13 26 20 18 25 69 94 112 153 89 121 115 138 39 25z m366 -15 c88 -50
93 -54 172 -145 51 -60 71 -111 73 -185 0 -51 -17 -73 -79 -102 -24 -12 -46
-21 -48 -21 -3 0 7 20 21 45 23 42 24 52 18 118 -14 134 -36 162 -204 258 -90
52 -102 63 -78 72 26 11 43 6 125 -40z m2093 -46 c97 -116 138 -262 139 -489
0 -130 -11 -179 -23 -104 -3 18 -25 76 -49 127 -37 78 -46 111 -57 196 -13
109 -34 192 -74 290 -32 79 -16 74 64 -20z m-3261 -142 c7 -9 11 -17 9 -19
-19 -17 -147 -111 -199 -146 -85 -56 -120 -89 -120 -114 0 -10 -3 -16 -7 -12
-4 3 -13 -4 -20 -16 -13 -22 -13 -21 -7 12 3 19 11 47 18 62 14 33 279 248
306 248 4 0 13 -7 20 -15z m-546 -174 c-6 -30 -6 -30 93 -174 77 -110 163
-273 163 -307 0 -37 -13 -44 -78 -43 -40 1 -64 8 -93 27 -21 15 -39 31 -39 36
0 5 -9 34 -21 64 -23 63 -89 164 -160 248 -52 60 -57 79 -35 133 14 33 39 50
34 23 -2 -9 13 -14 44 -16 38 -2 51 1 65 17 24 29 34 26 27 -8z m1397 -51 c10
0 19 -4 19 -10 0 -5 7 -18 16 -29 13 -15 23 -17 45 -11 27 8 28 7 18 -11 -7
-15 -6 -35 6 -76 16 -54 16 -57 -2 -67 -33 -18 -108 -94 -183 -185 -70 -86
-78 -92 -139 -112 -87 -28 -127 -20 -147 28 -12 28 -13 45 -4 87 13 65 56 157
103 222 39 54 173 172 215 191 24 10 27 9 30 -8 2 -11 11 -19 23 -19z m571
-39 c10 -1 42 -21 73 -46 31 -25 68 -51 83 -58 15 -6 41 -21 57 -33 17 -12 71
-42 120 -67 65 -32 105 -60 143 -100 57 -61 72 -91 72 -140 l-1 -32 -22 30
c-58 79 -157 163 -249 210 -51 27 -131 72 -178 100 -161 98 -176 105 -189 92
-9 -9 -14 -9 -20 1 -6 10 -14 10 -36 2 -15 -6 -30 -9 -32 -7 -8 8 122 55 142
52 11 -2 28 -4 37 -4z m-52 -190 c0 -11 -86 -31 -130 -31 -44 0 -57 -8 -95
-62 -20 -27 -54 -69 -76 -93 -34 -36 -46 -63 -74 -154 l-33 -110 33 -7 c18 -3
43 -3 54 1 12 3 21 2 21 -3 0 -14 -49 -21 -100 -13 -32 5 -44 11 -42 21 12 47
71 229 81 248 6 12 49 60 94 107 l82 86 80 8 c44 5 86 9 93 10 6 0 12 -3 12
-8z m885 -311 c22 -7 68 -25 101 -40 l62 -28 16 -70 c19 -84 19 -82 6 -82 -5
0 -10 10 -11 23 -1 38 -34 130 -48 135 -11 4 -12 0 -6 -14 21 -50 36 -97 33
-106 -2 -5 -19 3 -38 17 -77 58 -174 115 -239 140 l-69 27 -11 76 c-6 41 -21
91 -33 111 -15 25 12 3 88 -70 76 -74 122 -110 149 -119z m-3347 120 c68 -33
154 -78 190 -99 67 -39 202 -154 202 -172 0 -4 -14 -6 -32 -2 -28 5 -31 4 -24
-13 14 -35 13 -75 -1 -70 -18 7 -16 -9 3 -25 14 -12 44 -61 44 -74 0 -3 -18 6
-40 20 -47 30 -72 33 -63 8 3 -10 2 -15 -2 -11 -5 5 -13 -2 -19 -15 -16 -30
-26 -28 -76 17 -38 34 -42 41 -31 58 7 11 10 22 8 25 -3 3 -10 -4 -16 -16 -11
-20 -11 -20 -59 4 -74 38 -214 74 -370 95 -79 11 -148 22 -153 26 -13 8 -11
50 5 87 8 18 57 76 110 131 l95 99 53 -7 c34 -4 96 -27 176 -66z m2062 -436
c33 -20 60 -72 60 -115 0 -65 -67 -139 -124 -139 -31 0 -96 40 -111 69 -19 37
-29 103 -21 136 14 57 132 86 196 49z m-635 -23 c66 -41 78 -59 73 -116 -3
-32 -11 -60 -22 -70 -35 -36 -139 -27 -153 12 -3 10 -13 26 -21 35 -19 23 -8
97 19 132 25 31 62 34 104 7z m-195 -191 c0 -10 -20 -68 -44 -127 -24 -59 -54
-139 -67 -178 -12 -38 -27 -76 -32 -82 -13 -18 -27 -16 -27 2 0 9 -6 18 -14
21 -17 6 -10 34 54 224 30 86 47 121 67 137 35 28 63 30 63 3z m-180 -396 c9
-23 13 -24 26 -13 17 14 27 5 54 -41 6 -11 11 -12 23 -1 13 10 17 9 26 -6 9
-17 11 -17 27 -2 15 16 18 15 36 -3 19 -19 19 -19 -21 -66 -21 -26 -55 -62
-75 -81 -34 -33 -36 -34 -101 -29 -36 3 -69 8 -72 11 -11 12 50 257 64 257 2
0 8 -12 13 -26z m781 -186 c3 -4 19 -4 36 1 24 7 33 6 37 -5 7 -19 23 -18 53
6 36 28 43 25 36 -17 -4 -26 -3 -34 5 -29 8 5 12 -1 11 -16 0 -32 -104 -118
-142 -118 -50 0 -137 30 -137 47 0 23 51 133 62 133 5 0 6 4 3 10 -7 12 27 0
36 -12z"/>
<path d="M3673 4573 c3 -18 0 -31 -11 -40 -15 -11 -15 -12 4 -13 12 0 24 -7
28 -15 3 -10 -1 -15 -14 -15 -10 0 -22 -4 -25 -10 -4 -6 7 -10 25 -10 25 0 31
-4 26 -15 -3 -10 1 -15 12 -15 9 0 32 -21 51 -46 40 -53 105 -108 145 -123 45
-18 50 -2 9 28 -64 47 -169 168 -204 236 -36 68 -55 84 -46 38z"/>
<path d="M4780 4403 c-30 -11 -53 -39 -85 -103 -51 -102 -69 -173 -69 -280 -1
-123 21 -196 75 -255 38 -41 124 -93 135 -82 3 3 -10 10 -29 16 -19 7 -42 20
-51 30 -16 17 -14 18 32 13 100 -9 187 68 222 197 14 51 2 73 -27 50 -16 -13
-17 -12 -4 3 11 15 11 19 -3 24 -12 5 -14 10 -6 19 5 6 6 15 2 20 -4 4 5 0 19
-9 27 -17 27 -17 33 16 6 32 -7 170 -20 216 -10 34 7 27 73 -33 44 -39 70 -74
96 -127 52 -107 79 -195 80 -266 2 -60 0 -65 -28 -88 -16 -14 -59 -39 -95 -57
-61 -30 -71 -32 -171 -32 -59 0 -103 -3 -98 -6 5 -3 7 -14 3 -25 -7 -18 -7
-18 13 -1 28 25 43 21 43 -10 l1 -28 15 28 c18 33 34 35 35 5 0 -23 0 -23 9
-2 6 16 20 23 59 28 67 9 175 66 234 124 41 40 47 52 47 87 -1 67 -18 125 -71
233 -62 125 -149 220 -248 270 -55 27 -74 32 -135 31 -39 0 -78 -3 -86 -6z"/>
<path d="M2826 3777 c-3 -13 -12 -70 -21 -128 -45 -306 -139 -424 -335 -423
-55 1 -87 7 -121 22 -57 27 -123 97 -155 165 -13 29 -21 41 -18 27 20 -76 88
-162 156 -196 75 -38 174 -43 253 -14 128 49 199 170 230 391 8 62 18 129 21
147 6 37 -1 43 -10 9z"/>
<path d="M1386 4265 c-122 -43 -151 -186 -71 -348 22 -43 41 -74 43 -68 2 5
-3 20 -12 33 -85 132 -74 308 24 358 154 79 354 -65 440 -316 42 -120 16 -244
-59 -288 -74 -43 -192 -18 -276 60 -44 40 -46 29 -2 -13 17 -18 58 -44 91 -59
49 -22 68 -26 116 -21 71 6 103 26 138 86 23 40 27 56 26 121 -1 84 -24 154
-82 254 -52 89 -106 141 -185 181 -77 38 -125 44 -191 20z"/>
<path d="M1557 4123 c-17 -16 -3 -66 46 -156 60 -112 103 -170 119 -161 36 23
-51 250 -116 299 -36 27 -39 28 -49 18z"/>
<path d="M3618 2468 l93 -93 -2 -112 c-1 -62 3 -112 7 -112 27 3 84 42 84 57
0 30 -29 154 -45 197 -9 22 -26 47 -38 55 -57 36 -173 100 -182 100 -5 0 32
-42 83 -92z"/>
<path d="M4127 6162 c-18 -44 -37 -142 -37 -187 0 -21 -9 -40 -26 -56 l-26
-24 28 -5 c22 -4 29 -13 40 -50 11 -38 11 -47 -1 -60 -22 -24 -18 -40 10 -40
17 0 29 -9 39 -27 8 -16 26 -39 40 -52 22 -20 25 -30 20 -58 -7 -38 -3 -40 34
-13 23 17 33 18 62 10 19 -5 53 -10 76 -10 32 0 46 -5 58 -22 12 -17 18 -19
22 -10 9 19 22 30 82 63 62 35 112 105 112 156 0 53 -47 132 -118 201 -59 57
-64 65 -54 86 14 32 5 38 -29 21 -27 -14 -31 -13 -85 21 -68 44 -146 79 -195
88 -35 6 -37 5 -52 -32z"/>
<path d="M5201 5581 c-46 -12 -64 -52 -69 -148 -3 -61 -9 -93 -20 -106 -14
-16 -14 -19 -2 -27 8 -6 20 -10 26 -10 7 0 15 -11 18 -25 3 -13 20 -41 38 -60
28 -33 30 -39 20 -71 -12 -39 -8 -41 34 -15 32 19 32 19 114 -9 66 -22 86 -33
98 -55 l14 -28 22 28 c15 19 40 33 76 42 48 12 55 12 72 -4 17 -15 20 -15 28
-3 6 8 10 25 10 36 0 13 12 29 28 39 50 32 142 151 142 185 0 29 -68 83 -172
135 -78 39 -104 57 -106 73 -4 25 -6 26 -33 11 -15 -8 -38 -6 -89 5 -69 16
-204 20 -249 7z"/>
</g>
</svg>
